<?xml version="1.0" standalone="no"?>
<!DOCTYPE svg PUBLIC "-//W3C//DTD SVG 20010904//EN"
 "http://www.w3.org/TR/2001/REC-SVG-20010904/DTD/svg10.dtd">
<svg version="1.0" xmlns="http://www.w3.org/2000/svg"
 width="2048.000000pt" height="2048.000000pt" viewBox="0 0 2048.000000 2048.000000"
 preserveAspectRatio="xMidYMid meet">
<metadata>
Created by potrace 1.14, written by Peter Selinger 2001-2017
</metadata>
<g transform="translate(0.000000,2048.000000) scale(0.100000,-0.100000)"
fill="#000000" stroke="none">
<path d="M3692 14644 c-22 -15 -22 -17 -22 -305 0 -276 1 -290 20 -309 20 -20
33 -20 1393 -20 l1374 0 19 21 c17 19 19 42 22 282 2 144 0 272 -3 285 -3 12
-14 31 -25 42 -20 20 -39 20 -1388 20 -1222 0 -1370 -2 -1390 -16z"/>
<path d="M7132 14644 c-22 -15 -22 -17 -22 -305 0 -276 1 -290 20 -309 20 -20
33 -20 1393 -20 l1374 0 19 21 c17 19 19 42 22 282 2 144 0 272 -3 285 -3 12
-14 31 -25 42 -20 20 -39 20 -1388 20 -1222 0 -1370 -2 -1390 -16z"/>
<path d="M10572 14644 c-22 -15 -22 -17 -22 -305 0 -276 1 -290 20 -309 20
-20 33 -20 1393 -20 l1374 0 19 21 c17 19 19 42 22 282 2 144 0 272 -3 285 -3
12 -14 31 -25 42 -20 20 -39 20 -1388 20 -1222 0 -1370 -2 -1390 -16z"/>
<path d="M14002 14644 c-22 -15 -22 -17 -22 -305 0 -276 1 -290 20 -309 20
-20 33 -20 1393 -20 l1374 0 19 21 c17 19 19 42 22 282 2 144 0 272 -3 285 -3
12 -14 31 -25 42 -20 20 -39 20 -1388 20 -1222 0 -1370 -2 -1390 -16z"/>
<path d="M3152 11950 c-12 -5 -27 -21 -32 -35 -14 -38 -13 -2193 1 -2270 22
-119 103 -235 208 -299 112 -69 64 -66 1202 -66 978 0 1030 1 1088 19 128 40
217 119 280 251 l36 75 3 1141 c2 1115 2 1142 -17 1165 l-19 24 -283 3 c-287
3 -330 -1 -343 -34 -3 -9 -7 -428 -7 -932 -1 -504 -4 -950 -6 -989 l-5 -73
-209 0 -209 0 0 980 c0 706 -3 986 -11 1004 -20 43 -47 47 -323 44 -257 -3
-258 -3 -277 -27 -18 -22 -19 -54 -19 -1012 l0 -989 -210 0 -210 0 -2 995 c-3
939 -4 995 -21 1012 -16 16 -44 18 -305 20 -160 1 -297 -2 -310 -7z"/>
<path d="M8200 11949 c-154 -30 -294 -157 -341 -310 -18 -58 -19 -106 -19
-1017 0 -767 3 -967 14 -1007 40 -153 152 -268 305 -315 60 -19 96 -20 806
-20 701 0 747 1 804 19 156 49 277 183 311 346 7 33 10 227 8 554 l-3 503 -24
19 c-22 18 -43 19 -316 19 l-294 0 -20 -26 c-20 -26 -21 -38 -21 -384 l0 -357
-23 -22 -24 -22 -406 3 c-374 3 -408 4 -424 21 -17 17 -18 59 -21 650 -2 448
1 640 9 659 6 15 24 31 41 37 21 7 248 11 684 11 l653 0 20 26 c20 25 21 39
21 288 0 143 -3 271 -6 284 -15 53 3 52 -876 51 -447 -1 -833 -5 -858 -10z"/>
<path d="M12010 11953 c-41 -15 -40 17 -40 -1339 l0 -1303 22 -15 c19 -14 66
-16 315 -16 280 0 294 1 313 20 20 20 20 33 20 1015 l0 995 213 -2 212 -3 3
-989 2 -990 22 -23 c21 -23 23 -23 288 -23 214 0 270 3 286 14 19 14 19 39 24
1013 l5 998 213 3 212 2 0 -993 0 -994 23 -21 c23 -22 29 -22 313 -22 278 0
291 1 312 20 l22 21 0 1133 c0 1096 -1 1135 -19 1189 -25 72 -81 157 -135 203
-52 46 -145 91 -215 104 -56 10 -2382 14 -2411 3z"/>
<path d="M16740 11953 c-41 -15 -40 17 -40 -1339 l0 -1303 22 -15 c19 -14 66
-16 315 -16 280 0 294 1 313 20 20 20 20 33 20 1315 l0 1296 -25 24 -24 25
-283 -1 c-156 0 -290 -3 -298 -6z"/>
<path d="M3692 6994 c-22 -15 -22 -17 -22 -305 0 -276 1 -290 20 -309 20 -20
33 -20 1393 -20 l1374 0 19 21 c17 19 19 42 22 282 2 144 0 272 -3 285 -3 12
-14 31 -25 42 -20 20 -39 20 -1388 20 -1222 0 -1370 -2 -1390 -16z"/>
<path d="M7132 6994 c-22 -15 -22 -17 -22 -305 0 -276 1 -290 20 -309 20 -20
33 -20 1393 -20 l1374 0 19 21 c17 19 19 42 22 282 2 144 0 272 -3 285 -3 12
-14 31 -25 42 -20 20 -39 20 -1388 20 -1222 0 -1370 -2 -1390 -16z"/>
<path d="M10572 6994 c-22 -15 -22 -17 -22 -305 0 -276 1 -290 20 -309 20 -20
33 -20 1393 -20 l1374 0 19 21 c17 19 19 42 22 282 2 144 0 272 -3 285 -3 12
-14 31 -25 42 -20 20 -39 20 -1388 20 -1222 0 -1370 -2 -1390 -16z"/>
<path d="M14002 6994 c-22 -15 -22 -17 -22 -305 0 -276 1 -290 20 -309 20 -20
33 -20 1393 -20 l1374 0 19 21 c17 19 19 42 22 282 2 144 0 272 -3 285 -3 12
-14 31 -25 42 -20 20 -39 20 -1388 20 -1222 0 -1370 -2 -1390 -16z"/>
</g>
</svg>
